<svg width="30" height="25" viewBox="0 0 30 25" fill="none" xmlns="http://www.w3.org/2000/svg">
<path d="M27.5063 14.7128L29.9684 4.55659C30.1462 3.82329 29.5516 3.125 28.7495 3.125H8.29209L7.81469 0.937012C7.69573 0.39165 7.18386 0 6.59005 0H1.25C0.559636 0 0 0.524658 0 1.17187V1.95312C0 2.60034 0.559636 3.125 1.25 3.125H4.88974L8.54849 19.8943C7.67318 20.3662 7.08334 21.2511 7.08334 22.2656C7.08334 23.7758 8.38917 25 10 25C11.6108 25 12.9167 23.7758 12.9167 22.2656C12.9167 21.5003 12.5809 20.8088 12.0404 20.3125H22.9595C22.4191 20.8088 22.0833 21.5003 22.0833 22.2656C22.0833 23.7758 23.3892 25 25 25C26.6108 25 27.9167 23.7758 27.9167 22.2656C27.9167 21.183 27.2454 20.2475 26.2719 19.8044L26.5593 18.6191C26.737 17.8858 26.1425 17.1875 25.3404 17.1875H11.3603L11.0194 15.625H26.2874C26.871 15.625 27.3769 15.2464 27.5063 14.7128Z" fill="#FFFFFF"/>
</svg>
