<svg width="36" height="40" viewBox="0 0 36 40" fill="none" xmlns="http://www.w3.org/2000/svg">
<path d="M2.354 40L0.254 37.6583L21.254 14.2411C20.5207 12.4569 20.354 10.6077 20.754 8.6934C21.154 6.77913 22.104 4.98567 23.604 3.31301C25.104 1.67752 26.9207 0.627464 29.054 0.162837C31.1873 -0.301791 32.9373 0.227885 34.304 1.75186C35.704 3.31301 36.179 5.26445 35.729 7.60617C35.279 9.94789 34.2707 12.0108 32.704 13.795C31.3373 15.3562 29.8123 16.3783 28.129 16.8616C26.4457 17.3448 24.8707 17.2333 23.404 16.527L20.054 20.2626L35.654 37.6583L33.554 40L17.954 22.6043L2.354 40ZM8.604 20.4299L2.654 13.795C0.954 11.8993 0.0706667 9.65053 0.004 7.04862C-0.0626667 4.4467 0.704 2.14215 2.304 0.134959L14.554 13.795L8.604 20.4299Z" fill="#575757"/>
</svg>
