<svg width="40" height="40" viewBox="0 0 40 40" fill="none" xmlns="http://www.w3.org/2000/svg">
<path d="M1.5 40C1 40 0.625 39.875 0.375 39.625C0.125 39.375 0 39 0 38.5V36H28.5V38.5C28.5 39 28.375 39.375 28.125 39.625C27.875 39.875 27.5 40 27 40H1.5ZM0 32.8V30.3C0 29.8 0.125 29.425 0.375 29.175C0.625 28.925 1 28.8 1.5 28.8H10.6V25.15H17.9V28.8H27C27.5 28.8 27.875 28.925 28.125 29.175C28.375 29.425 28.5 29.8 28.5 30.3V32.8H0ZM33.2 40V26.8C32.1667 25.9333 31.275 24.7833 30.525 23.35C29.775 21.9167 29.4 20.3 29.4 18.5V0H40V18.5C40 20.3 39.625 21.9167 38.875 23.35C38.125 24.7833 37.2333 25.9333 36.2 26.8V37H40V40H33.2ZM32.4 11.95H37V3H32.4V11.95ZM34.7 24.15C35.4667 23.4833 36.0417 22.6417 36.425 21.625C36.8083 20.6083 37 19.5667 37 18.5V14.95H32.4V18.5C32.4 19.5667 32.5917 20.6083 32.975 21.625C33.3583 22.6417 33.9333 23.4833 34.7 24.15Z" fill="#575757"/>
</svg>
