<svg width="40" height="36" viewBox="0 0 40 36" fill="none" xmlns="http://www.w3.org/2000/svg">
<path d="M3 36L0 33H40L37 36H3ZM2.35 29.95C2.58333 29.4167 2.80833 28.9333 3.025 28.5C3.24167 28.0667 3.58333 27.6167 4.05 27.15V10.9H2V8.4H4.05V6.7H2V4.2H4.05V2.5H2V0H17C17.8 0 18.4167 0.216667 18.85 0.65C19.2833 1.08333 19.5 1.7 19.5 2.5V4.2H38V6.7H19.5V8.4C19.5 9.2 19.2833 9.81667 18.85 10.25C18.4167 10.6833 17.8 10.9 17 10.9H11.75V24.45C12.4167 24.5167 13.0667 24.6833 13.7 24.95C14.3333 25.2167 14.9333 25.5833 15.5 26.05C16.0333 23.95 17.225 22.175 19.075 20.725C20.925 19.275 23.1167 18.55 25.65 18.55C28.75 18.55 31.275 19.5667 33.225 21.6C35.175 23.6333 36.15 26.2 36.15 29.3V29.95H2.35ZM18.5 26.95H32.8C32.5 25.45 31.6833 24.175 30.35 23.125C29.0167 22.075 27.45 21.55 25.65 21.55C23.85 21.55 22.2833 22.075 20.95 23.125C19.6167 24.175 18.8 25.45 18.5 26.95ZM11.75 4.2H17V2.5H11.75V4.2ZM11.75 8.4H17V6.7H11.75V8.4ZM6.5 4.2H9.25V2.5H6.5V4.2ZM6.5 8.4H9.25V6.7H6.5V8.4ZM6.5 25.4C6.76667 25.2 7.16667 24.9917 7.7 24.775C8.23333 24.5583 8.75 24.4333 9.25 24.4V10.9H6.5V25.4Z" fill="#575757"/>
</svg>
