<svg width="40" height="36" viewBox="0 0 40 36" fill="none" xmlns="http://www.w3.org/2000/svg">
<path d="M0 14.1V12.1C0 8.46667 1.75 5.54167 5.25 3.325C8.75 1.10833 13.6667 0 20 0C26.3333 0 31.25 1.10833 34.75 3.325C38.25 5.54167 40 8.46667 40 12.1V14.1H0ZM3.1 11.1H36.9C36.8 8.8 35.1917 6.875 32.075 5.325C28.9583 3.775 24.9333 3 20 3C15.0667 3 11.025 3.775 7.875 5.325C4.725 6.875 3.13333 8.8 3.1 11.1ZM0 22.9V19.9C1.1 19.9 2.05833 19.5333 2.875 18.8C3.69167 18.0667 5 17.7 6.8 17.7C8.6 17.7 9.79167 18.0667 10.375 18.8C10.9583 19.5333 11.9333 19.9 13.3 19.9C14.6667 19.9 15.675 19.5333 16.325 18.8C16.975 18.0667 18.2 17.7 20 17.7C21.8 17.7 23.025 18.0667 23.675 18.8C24.325 19.5333 25.3333 19.9 26.7 19.9C28.0667 19.9 29.0417 19.5333 29.625 18.8C30.2083 18.0667 31.4 17.7 33.2 17.7C35 17.7 36.3083 18.0667 37.125 18.8C37.9417 19.5333 38.9 19.9 40 19.9V22.9C38.2 22.9 36.9583 22.5333 36.275 21.8C35.5917 21.0667 34.5667 20.7 33.2 20.7C31.8333 20.7 30.8583 21.0667 30.275 21.8C29.6917 22.5333 28.5 22.9 26.7 22.9C24.9 22.9 23.675 22.5333 23.025 21.8C22.375 21.0667 21.3667 20.7 20 20.7C18.6333 20.7 17.625 21.0667 16.975 21.8C16.325 22.5333 15.1 22.9 13.3 22.9C11.5 22.9 10.3083 22.5333 9.725 21.8C9.14167 21.0667 8.16667 20.7 6.8 20.7C5.43333 20.7 4.41072 21.0667 3.73215 21.8C3.05358 22.5333 1.80953 22.9 0 22.9ZM3 36C2.2 36 1.5 35.7 0.9 35.1C0.3 34.5 0 33.8 0 33V26.6H40V33C40 33.8 39.7 34.5 39.1 35.1C38.5 35.7 37.8 36 37 36H3ZM3 33H37V29.6H3V33Z" fill="#575757"/>
</svg>
