<svg width="40" height="40" viewBox="0 0 40 40" fill="none" xmlns="http://www.w3.org/2000/svg">
<path d="M14.8 37H25.15V34.2L26.95 33.45C29.4167 32.4167 31.4333 31.0667 33 29.4C34.5667 27.7333 35.6833 25.9167 36.35 23.95H3.6C4.26667 25.9167 5.4 27.7417 7 29.425C8.6 31.1083 10.6 32.45 13 33.45L14.8 34.2V37ZM11.8 40V36.1C8.3 34.7 5.51667 32.6667 3.45 30C1.38333 27.3333 0.233333 24.3333 0 21H3.6V4.05L40 0V2.5L16.1 5.15V9.5H40V12H16.1V21H39.95C39.75 24.3333 38.6 27.3333 36.5 30C34.4 32.6667 31.6167 34.7 28.15 36.1V40H11.8ZM11.1 9.5H13.6V5.4L11.1 5.7V9.5ZM6.1 9.5H8.6V5.95L6.1 6.234V9.5ZM11.1 21H13.6V12H11.1V21ZM6.1 21H8.6V12H6.1V21Z" fill="#575757"/>
</svg>
