<svg width="42" height="40" viewBox="0 0 42 40" fill="none" xmlns="http://www.w3.org/2000/svg">
<path d="M6.85 40V36H11.05V22.4L0 0H25.1L14.05 22.4V36H18.25V40H6.85ZM8 9.73333H17.1L19.85 4H5.25L8 9.73333ZM29.75 40C28.0833 40 26.7083 39.2778 25.625 37.8333C24.5417 36.3889 24 34.5556 24 32.3333C24 30.1111 24.5417 28.2778 25.625 26.8333C26.7083 25.3889 28.0833 24.6667 29.75 24.6667C30.25 24.6667 30.725 24.7333 31.175 24.8667C31.625 25 32.0667 25.1778 32.5 25.4V0H42V6.6H35.5V32.3333C35.5 34.5556 34.9583 36.3889 33.875 37.8333C32.7917 39.2778 31.4167 40 29.75 40Z" fill="#575757"/>
</svg>
