<svg width="36" height="44" viewBox="0 0 36 44" fill="none" xmlns="http://www.w3.org/2000/svg">
<path d="M17.95 44L8.9 25.6C6.6 26 4.54167 25.5 2.725 24.1C0.908333 22.7 0 20.75 0 18.25C0 16.75 0.458333 15.2833 1.375 13.85C2.29167 12.4167 3.63333 11.45 5.4 10.95C5.93333 7.65 7.40833 5 9.825 3C12.2417 1 14.9667 0 18 0C21.0333 0 23.75 1 26.15 3C28.55 5 30.0333 7.65 30.6 10.95C32.3667 11.45 33.7083 12.4167 34.625 13.85C35.5417 15.2833 36 16.75 36 18.25C36 20.75 35.0583 22.7 33.175 24.1C31.2917 25.5 29.3 26 27.2 25.6L17.95 44ZM7.3 22.75C7.9 22.75 8.46667 22.6667 9 22.5C9.53333 22.3333 9.95 22.1 10.25 21.8L11.55 20.45L12.7 21.45C13.5333 22.0167 14.4417 22.375 15.425 22.525C16.4083 22.675 17.3167 22.75 18.15 22.75C18.9833 22.75 19.8333 22.675 20.7 22.525C21.5667 22.375 22.4167 22.0167 23.25 21.45L24.45 20.45L25.7 21.8C26 22.1 26.425 22.3333 26.975 22.5C27.525 22.6667 28.0833 22.75 28.65 22.75C29.7833 22.75 30.7917 22.2917 31.675 21.375C32.5583 20.4583 33 19.4167 33 18.25C33 17.2167 32.6833 16.3167 32.05 15.55C31.4167 14.7833 30.5167 14.3 29.35 14.1L27.6 13.85L27.5 11.9C27.1333 9.26667 26.1083 7.125 24.425 5.475C22.7417 3.825 20.6 3 18 3C15.4 3 13.25 3.825 11.55 5.475C9.85 7.125 8.83333 9.26667 8.5 11.9L8.35 13.85L6.6 14.25C5.6 14.5167 4.75 14.9917 4.05 15.675C3.35 16.3583 3 17.2167 3 18.25C3 19.4167 3.44167 20.4583 4.325 21.375C5.20833 22.2917 6.2 22.75 7.3 22.75ZM17.95 37.2L24.35 24.6L24.05 24.3C23.1167 24.8 22.1083 25.1667 21.025 25.4C19.9417 25.6333 18.9833 25.75 18.15 25.75C17.0833 25.75 16 25.6333 14.9 25.4C13.8 25.1667 12.8333 24.8 12 24.3L11.7 24.55L17.95 37.2Z" fill="#575757"/>
</svg>
